# xmcd CD database file
#
# Track frame offsets:
#	150
#	12392
#	41124
#	64821
#	83961
#	103173
#	111983
#	123875
#	136737
#	190134
#
# Disc length: 2831 seconds
#
# Revision: 0
# Processed by: cddbd v1.5.2PL0 Copyright (c) Steve Scherf et al.
# Submitted via: CDex 1.51
#
DISCID=880b0d0a
DTITLE=George Winston - Gulf Coast Blues and Impressions - A Hurricane Relief Benefit
DYEAR=2006
DGENRE=New Age
TTITLE0=New Orleans Shall Rise Again
TTITLE1=Creole Moon
TTITLE2=Pixie
TTITLE3=The Breaks
TTITLE4=Pixie #3 (Gôbajie)
TTITLE5=Stevenson
TTITLE6=Gulf Coast Lullaby - Part 1
TTITLE7=Gulf Coast Lullaby - Part 2
TTITLE8=When the Saints Go Marching In
TTITLE9=Blues for Fess, Beloved
EXTD=YEAR: 2006
EXTT0=
EXTT1=
EXTT2=
EXTT3=
EXTT4=
EXTT5=
EXTT6=
EXTT7=
EXTT8=
EXTT9=
PLAYORDER=
